<?xml version="1.0" standalone="no"?>
<!DOCTYPE svg PUBLIC "-//W3C//DTD SVG 20010904//EN"
 "http://www.w3.org/TR/2001/REC-SVG-20010904/DTD/svg10.dtd">
<svg version="1.0" xmlns="http://www.w3.org/2000/svg"
 width="360.000000pt" height="99.000000pt" viewBox="0 0 360.000000 99.000000"
 preserveAspectRatio="xMidYMid meet">

<g transform="translate(0.000000,99.000000) scale(0.100000,-0.100000)"
fill="#000000" stroke="none">
<path d="M2413 965 c-31 -13 -53 -42 -53 -67 1 -7 7 1 14 18 15 35 68 59 102
48 16 -5 16 -4 4 5 -19 14 -28 13 -67 -4z"/>
<path d="M350 785 c0 -102 -2 -185 -5 -185 -2 0 -15 11 -28 24 -31 31 -99 50
-146 41 -113 -21 -184 -125 -166 -245 16 -104 79 -170 170 -178 70 -6 97 2
140 39 l35 31 0 -31 c0 -28 3 -31 30 -31 l30 0 0 360 0 360 -30 0 -30 0 0
-185z m-60 -204 c34 -24 60 -78 60 -126 0 -117 -122 -193 -216 -136 -78 47
-87 190 -16 254 43 39 123 43 172 8z"/>
<path d="M2140 610 l0 -360 30 0 30 0 0 360 0 360 -30 0 -30 0 0 -360z"/>
<path d="M2453 938 c-45 -15 -54 -46 -50 -173 l3 -110 2 118 c2 104 4 119 23
138 12 12 29 19 40 16 12 -3 19 0 19 9 0 8 -1 14 -2 13 -2 -1 -17 -6 -35 -11z"/>
<path d="M2352 768 l-2 -118 -25 0 c-20 0 -25 -5 -25 -25 0 -20 5 -25 25 -25
l25 0 0 -175 0 -175 30 0 30 0 0 175 0 175 40 0 c36 0 40 3 40 25 0 23 -3 25
-42 23 l-43 -1 38 -4 c53 -6 51 -33 -3 -33 l-40 0 0 -175 c0 -168 -1 -175 -20
-175 -19 0 -20 8 -22 173 -3 170 -3 172 -25 175 -29 4 -30 32 -3 32 29 0 31
12 27 136 l-3 109 -2 -117z"/>
<path d="M543 859 c-30 -11 -32 -63 -3 -79 38 -20 80 22 60 60 -13 23 -30 29
-57 19z"/>
<path d="M1213 859 c-31 -11 -32 -64 -2 -79 28 -15 72 12 67 42 -4 29 -38 48
-65 37z"/>
<path d="M2596 844 c-19 -18 -19 -20 -6 -45 14 -25 56 -25 70 1 23 44 -29 80
-64 44z m58 -10 c7 -19 -10 -44 -29 -44 -7 0 -18 7 -25 15 -10 12 -10 18 0 30
16 20 46 19 54 -1z"/>
<path d="M1418 738 c-3 -77 -5 -83 -25 -86 -35 -5 -32 -52 2 -52 l25 0 0 -175
0 -175 30 0 30 0 0 175 0 175 35 0 c30 0 35 3 35 24 0 21 -6 25 -32 28 l-33 3
-3 83 -3 82 -29 0 -29 0 -3 -82z"/>
<path d="M3460 735 c0 -84 0 -85 -25 -85 -20 0 -25 -5 -25 -25 0 -20 5 -25 25
-25 l25 0 0 -175 0 -175 30 0 30 0 0 174 0 175 38 4 37 4 -40 -1 -40 -1 -3
-172 c-2 -164 -3 -173 -22 -173 -19 0 -20 9 -22 173 -3 170 -3 172 -25 175
-13 2 -23 10 -23 17 0 7 10 15 23 17 20 3 22 9 25 86 2 73 5 82 22 82 17 0 20
-9 22 -82 l3 -83 40 -1 40 -1 -37 4 -38 4 0 85 0 84 -30 0 -30 0 0 -85z"/>
<path d="M811 658 c-52 -14 -79 -37 -109 -87 -22 -38 -26 -57 -26 -116 0 -83
25 -139 80 -181 64 -49 190 -43 233 12 10 13 22 24 26 24 4 0 5 -36 3 -80 -4
-60 -10 -88 -25 -108 -44 -60 -163 -66 -214 -11 -18 20 -37 29 -58 29 -29 0
-30 -1 -20 -27 17 -46 50 -73 107 -89 88 -26 179 -7 228 48 39 43 44 80 44
338 l0 247 -30 -5 c-24 -3 -30 -9 -30 -28 0 -30 -3 -30 -33 0 -25 24 -85 47
-122 45 -11 0 -35 -5 -54 -11z m149 -77 c42 -30 62 -79 56 -139 -6 -62 -24
-95 -69 -122 -68 -42 -158 -16 -191 55 -28 58 -19 146 19 185 49 51 129 61
185 21z"/>
<path d="M1731 658 c-51 -14 -79 -36 -106 -83 -66 -112 -24 -277 81 -321 69
-29 178 -10 206 35 18 29 28 26 28 -9 0 -27 3 -30 30 -30 l30 0 0 203 0 204
-30 -5 c-24 -3 -30 -9 -30 -28 0 -30 -3 -30 -36 1 -44 41 -106 53 -173 33z
m146 -74 c84 -54 78 -211 -9 -264 -66 -40 -159 -16 -194 51 -12 23 -15 50 -12
95 3 54 9 68 33 94 48 50 126 60 182 24z"/>
<path d="M2935 648 c-27 -16 -45 -40 -40 -55 2 -7 -3 -26 -11 -43 -21 -42 -22
-49 -23 -177 -1 -106 -2 -113 -21 -113 -19 0 -20 7 -20 190 0 181 1 190 19
190 14 0 21 -8 24 -27 4 -26 4 -26 6 5 1 29 -2 32 -29 32 l-30 0 0 -200 0
-200 29 0 29 0 4 133 c4 142 20 200 60 213 11 3 17 8 15 11 -3 2 -15 0 -26 -7
-30 -16 -26 4 5 29 31 24 84 28 84 7 0 -8 -12 -17 -27 -19 -27 -4 -27 -4 3 -6
26 -1 32 3 36 24 5 23 2 25 -31 25 -20 0 -45 -6 -56 -12z"/>
<path d="M3173 653 c9 -2 23 -2 30 0 6 3 -1 5 -18 5 -16 0 -22 -2 -12 -5z"/>
<path d="M3254 645 c51 -18 72 -47 42 -58 -8 -3 -22 3 -32 14 -23 26 -94 26
-117 1 -18 -19 -23 -67 -9 -76 5 -3 6 8 4 25 -6 41 13 59 63 59 29 0 47 -6 59
-19 15 -16 22 -18 42 -9 19 9 21 14 13 29 -11 22 -60 49 -86 49 -10 -1 0 -7
21 -15z"/>
<path d="M530 450 l0 -200 30 0 30 0 0 200 0 200 -30 0 -30 0 0 -200z"/>
<path d="M1200 450 l0 -200 30 0 29 0 3 200 3 200 -32 0 -33 0 0 -200z"/>
<path d="M2600 450 l0 -200 25 0 c14 0 25 4 25 9 0 5 -9 7 -20 4 -19 -5 -20 0
-20 185 0 190 0 191 23 195 19 4 18 4 -5 6 l-28 1 0 -200z"/>
<path d="M3113 628 c-29 -32 -36 -63 -23 -103 14 -41 46 -66 124 -96 62 -23
83 -50 72 -92 -3 -13 -16 -29 -28 -35 -13 -6 -17 -11 -10 -11 20 -1 52 37 52
62 0 37 -26 63 -87 88 -82 32 -100 46 -113 84 -14 43 -4 80 27 105 14 11 21
20 16 20 -5 0 -19 -10 -30 -22z"/>
<path d="M3166 495 c10 -8 24 -15 29 -15 6 0 34 -11 63 -25 41 -19 56 -33 68
-60 8 -20 12 -41 8 -47 -4 -7 -3 -8 4 -4 16 10 5 55 -20 83 -11 12 -43 31 -71
43 -29 11 -60 25 -69 30 -27 15 -34 12 -12 -5z"/>
<path d="M3078 326 c-17 -12 -16 -15 6 -39 52 -57 169 -60 226 -7 16 15 30 34
30 42 0 7 -8 1 -18 -15 -35 -57 -152 -73 -211 -29 -30 22 -34 48 -8 46 9 -1
17 2 17 7 0 13 -22 10 -42 -5z"/>
<path d="M3130 306 c0 -2 7 -7 16 -10 8 -3 12 -2 9 4 -6 10 -25 14 -25 6z"/>
<path d="M3183 283 c9 -2 25 -2 35 0 9 3 1 5 -18 5 -19 0 -27 -2 -17 -5z"/>
<path d="M1670 105 l0 -75 53 2 c50 1 50 2 10 5 -38 4 -43 7 -43 29 0 21 4 24
40 24 22 0 40 5 40 10 0 6 -18 10 -40 10 -36 0 -40 3 -40 25 0 23 4 25 40 25
22 0 40 5 40 10 0 6 -22 10 -50 10 l-50 0 0 -75z"/>
<path d="M2090 105 l0 -75 44 0 c36 0 48 5 65 26 46 59 2 124 -85 124 -23 0
-24 -2 -24 -75z m88 39 c46 -32 15 -104 -45 -104 -21 0 -23 4 -23 60 0 56 2
60 23 60 12 0 33 -7 45 -16z"/>
<path d="M2540 100 c0 -46 3 -81 6 -77 3 3 6 38 6 77 0 39 -3 74 -6 77 -3 4
-6 -31 -6 -77z"/>
<path d="M1321 136 c-39 -40 -44 -42 -63 -23 -8 6 -24 21 -36 31 l-22 19 0
-72 c0 -46 4 -70 10 -66 6 3 10 27 10 52 l0 47 28 -27 28 -27 24 25 c13 14 27
25 32 25 4 0 8 -23 8 -52 0 -36 3 -49 10 -42 6 6 10 40 8 78 l-3 67 -34 -35z"/>
<path d="M2912 94 c-18 -37 -31 -69 -28 -72 3 -2 8 3 12 12 9 23 99 23 108 0
4 -9 9 -14 13 -11 6 6 -58 137 -67 137 -3 0 -20 -30 -38 -66z m54 9 c20 -27
17 -33 -16 -33 -28 0 -29 1 -18 25 13 30 17 30 34 8z"/>
</g>
</svg>
