{
  "accessors": [
    {
      "bufferView": 2,
      "componentType": 5126,
      "count": 4626,
      "max": [63.93967819213867, 158.01571655273438, 62.29551315307617],
      "min": [-63.939632415771484, 39.21202087402344, -33.63945007324219],
      "type": "VEC3"
    },
    {
      "bufferView": 2,
      "byteOffset": 55512,
      "componentType": 5126,
      "count": 4626,
      "max": [1.0, 0.9994161128997803, 0.9978590607643127],
      "min": [-1.0, -0.9994187355041504, -0.9989734888076782],
      "type": "VEC3"
    },
    {
      "bufferView": 1,
      "componentType": 5126,
      "count": 4626,
      "max": [1.0, 1.0],
      "min": [0.0, 0.0],
      "type": "VEC2"
    },
    {
      "bufferView": 0,
      "componentType": 5125,
      "count": 23136,
      "type": "SCALAR"
    },
    {
      "bufferView": 2,
      "byteOffset": 111024,
      "componentType": 5126,
      "count": 63,
      "max": [2.104036808013916, 158.37327575683594, -0.6122596263885498],
      "min": [-2.104032039642334, 156.0460968017578, -2.5818750858306885],
      "type": "VEC3"
    },
    {
      "bufferView": 2,
      "byteOffset": 111780,
      "componentType": 5126,
      "count": 63,
      "max": [0.2283841371536255, 0.9715721607208252, 0.9899371862411499],
      "min": [-0.22838395833969116, -0.9665706157684326, -0.9913531541824341],
      "type": "VEC3"
    },
    {
      "bufferView": 1,
      "byteOffset": 37008,
      "componentType": 5126,
      "count": 63,
      "max": [0.005430130288004875, 1.0],
      "min": [0.0, 0.0],
      "type": "VEC2"
    },
    {
      "bufferView": 0,
      "byteOffset": 92544,
      "componentType": 5125,
      "count": 144,
      "type": "SCALAR"
    },
    {
      "bufferView": 2,
      "byteOffset": 112536,
      "componentType": 5126,
      "count": 394,
      "max": [46.92365646362305, 89.35389709472656, 55.53295135498047],
      "min": [-46.923336029052734, 39.8892707824707, -25.510793685913086],
      "type": "VEC3"
    },
    {
      "bufferView": 2,
      "byteOffset": 117264,
      "componentType": 5126,
      "count": 394,
      "max": [0.9970071911811829, 0.999941349029541, 0.9959092736244202],
      "min": [-0.9971887469291687, -0.9991797208786011, -0.9961540102958679],
      "type": "VEC3"
    },
    {
      "bufferView": 3,
      "componentType": 5126,
      "count": 394,
      "max": [0.9999936819076538, 0.9910017848014832, 0.8593513369560242, 1.0],
      "min": [
        -0.999999463558197, -0.9961931705474854, -0.8877570033073425, 1.0
      ],
      "type": "VEC4"
    },
    {
      "bufferView": 1,
      "byteOffset": 37512,
      "componentType": 5126,
      "count": 394,
      "max": [1.0132012367248535, 0.9036542177200317],
      "min": [-0.022150814533233643, -0.02047598361968994],
      "type": "VEC2"
    },
    {
      "bufferView": 1,
      "byteOffset": 40664,
      "componentType": 5126,
      "count": 394,
      "max": [1.0132012367248535, 0.9036542177200317],
      "min": [-0.022150814533233643, -0.02047598361968994],
      "type": "VEC2"
    },
    {
      "bufferView": 0,
      "byteOffset": 93120,
      "componentType": 5125,
      "count": 2112,
      "type": "SCALAR"
    },
    {
      "bufferView": 2,
      "byteOffset": 121992,
      "componentType": 5126,
      "count": 1069,
      "max": [52.0, 194.0501708984375, 52.0],
      "min": [-52.0, 0.0, -81.41034698486328],
      "type": "VEC3"
    },
    {
      "bufferView": 2,
      "byteOffset": 134820,
      "componentType": 5126,
      "count": 1069,
      "max": [1.0, 0.9997143149375916, 1.0],
      "min": [-1.0, -0.9997143149375916, -1.0],
      "type": "VEC3"
    },
    {
      "bufferView": 1,
      "byteOffset": 43816,
      "componentType": 5126,
      "count": 1069,
      "max": [1.0, 1.0],
      "min": [0.0, 0.0],
      "type": "VEC2"
    },
    {
      "bufferView": 0,
      "byteOffset": 101568,
      "componentType": 5125,
      "count": 5274,
      "type": "SCALAR"
    },
    {
      "bufferView": 2,
      "byteOffset": 147648,
      "componentType": 5126,
      "count": 84,
      "max": [3.146137237548828, 23.531082153320313, -31.39196014404297],
      "min": [-3.146149158477783, 20.994970321655273, -34.32040786743164],
      "type": "VEC3"
    },
    {
      "bufferView": 2,
      "byteOffset": 148656,
      "componentType": 5126,
      "count": 84,
      "max": [1.0, 1.0, 0.8660255670547485],
      "min": [-1.0, -1.0, -0.8660255670547485],
      "type": "VEC3"
    },
    {
      "bufferView": 1,
      "byteOffset": 52368,
      "componentType": 5126,
      "count": 84,
      "max": [0.0, 0.0],
      "min": [0.0, 0.0],
      "type": "VEC2"
    },
    {
      "bufferView": 0,
      "byteOffset": 122664,
      "componentType": 5125,
      "count": 132,
      "type": "SCALAR"
    },
    {
      "bufferView": 2,
      "byteOffset": 149664,
      "componentType": 5126,
      "count": 3431,
      "max": [1.351760745048523, 195.0, 0.476470410823822],
      "min": [-1.351760745048523, 155.63504028320313, -4.476470470428467],
      "type": "VEC3"
    },
    {
      "bufferView": 2,
      "byteOffset": 190836,
      "componentType": 5126,
      "count": 3431,
      "max": [0.9979937076568604, 1.0, 0.9961948990821838],
      "min": [-0.9979937076568604, -1.0, -0.9961948394775391],
      "type": "VEC3"
    },
    {
      "bufferView": 1,
      "byteOffset": 53040,
      "componentType": 5126,
      "count": 3431,
      "max": [1.0, 1.0],
      "min": [0.0, 0.0],
      "type": "VEC2"
    },
    {
      "bufferView": 0,
      "byteOffset": 123192,
      "componentType": 5125,
      "count": 17268,
      "type": "SCALAR"
    }
  ],
  "asset": {
    "extras": {
      "author": "d-luX (https://sketchfab.com/dluX80)",
      "license": "CC-BY-4.0 (http://creativecommons.org/licenses/by/4.0/)",
      "source": "https://sketchfab.com/3d-models/dlx-hanging-chair-63c5faadcd3543e1be6755bc3c8a3920",
      "title": "dlX - Hanging Chair"
    },
    "generator": "Sketchfab-15.17.0",
    "version": "2.0"
  },
  "bufferViews": [
    {
      "buffer": 0,
      "byteLength": 192264,
      "name": "floatBufferViews",
      "target": 34963
    },
    {
      "buffer": 0,
      "byteLength": 80488,
      "byteOffset": 192264,
      "byteStride": 8,
      "name": "floatBufferViews",
      "target": 34962
    },
    {
      "buffer": 0,
      "byteLength": 232008,
      "byteOffset": 272752,
      "byteStride": 12,
      "name": "floatBufferViews",
      "target": 34962
    },
    {
      "buffer": 0,
      "byteLength": 6304,
      "byteOffset": 504760,
      "byteStride": 16,
      "name": "floatBufferViews",
      "target": 34962
    }
  ],
  "buffers": [
    {
      "byteLength": 511064,
      "uri": "scene.bin"
    }
  ],
  "images": [
    {
      "uri": "textures/woodish_baseColor.png"
    },
    {
      "uri": "textures/Cushion_baseColor.png"
    },
    {
      "uri": "textures/Cushion_normal.png"
    }
  ],
  "materials": [
    {
      "doubleSided": true,
      "name": "woodish",
      "pbrMetallicRoughness": {
        "baseColorTexture": {
          "index": 0
        },
        "metallicFactor": 0.0,
        "roughnessFactor": 0.3032390193951067
      }
    },
    {
      "doubleSided": true,
      "name": "Plast",
      "pbrMetallicRoughness": {
        "baseColorFactor": [0.00364172, 0.00364172, 0.00364172, 1.0],
        "metallicFactor": 0.0,
        "roughnessFactor": 0.9993364470365231
      }
    },
    {
      "doubleSided": true,
      "name": "Cushion",
      "normalTexture": {
        "index": 2
      },
      "pbrMetallicRoughness": {
        "baseColorTexture": {
          "index": 1
        },
        "metallicFactor": 0.0,
        "roughnessFactor": 0.4373346661627921
      }
    },
    {
      "doubleSided": true,
      "name": "dark",
      "pbrMetallicRoughness": {
        "baseColorFactor": [0.0219551, 0.0219551, 0.0219551, 1.0],
        "metallicFactor": 0.0,
        "roughnessFactor": 0.12647657592861233
      }
    },
    {
      "doubleSided": true,
      "name": "Chrome",
      "pbrMetallicRoughness": {
        "baseColorFactor": [0.8, 0.8, 0.8, 1.0],
        "roughnessFactor": 0.0
      }
    }
  ],
  "meshes": [
    {
      "name": "Seat_woodish_0",
      "primitives": [
        {
          "attributes": {
            "NORMAL": 1,
            "POSITION": 0,
            "TEXCOORD_0": 2
          },
          "indices": 3,
          "material": 0,
          "mode": 4
        }
      ]
    },
    {
      "name": "Seat_Plast_0",
      "primitives": [
        {
          "attributes": {
            "NORMAL": 5,
            "POSITION": 4,
            "TEXCOORD_0": 6
          },
          "indices": 7,
          "material": 1,
          "mode": 4
        }
      ]
    },
    {
      "name": "Cushion_Cushion_0",
      "primitives": [
        {
          "attributes": {
            "NORMAL": 9,
            "POSITION": 8,
            "TANGENT": 10,
            "TEXCOORD_0": 11,
            "TEXCOORD_1": 12
          },
          "indices": 13,
          "material": 2,
          "mode": 4
        }
      ]
    },
    {
      "name": "Metalic_dark_0",
      "primitives": [
        {
          "attributes": {
            "NORMAL": 15,
            "POSITION": 14,
            "TEXCOORD_0": 16
          },
          "indices": 17,
          "material": 3,
          "mode": 4
        }
      ]
    },
    {
      "name": "Metalic_Chrome_0",
      "primitives": [
        {
          "attributes": {
            "NORMAL": 19,
            "POSITION": 18,
            "TEXCOORD_0": 20
          },
          "indices": 21,
          "material": 4,
          "mode": 4
        }
      ]
    },
    {
      "name": "Chain_Chrome_0",
      "primitives": [
        {
          "attributes": {
            "NORMAL": 23,
            "POSITION": 22,
            "TEXCOORD_0": 24
          },
          "indices": 25,
          "material": 4,
          "mode": 4
        }
      ]
    }
  ],
  "nodes": [
    {
      "children": [1],
      "matrix": [
        1.0, 0.0, 0.0, 0.0, 0.0, 2.220446049250313e-16, -1.0, 0.0, 0.0, 1.0,
        2.220446049250313e-16, 0.0, 0.0, 0.0, 0.0, 1.0
      ],
      "name": "Sketchfab_model"
    },
    {
      "children": [2],
      "matrix": [
        0.009999999776482582, 0.0, 0.0, 0.0, 0.0, 0.0, 0.009999999776482582,
        0.0, 0.0, -0.009999999776482582, 0.0, 0.0, 0.0, 0.0, 0.0, 1.0
      ],
      "name": "dlX - Hanging Chair.fbx"
    },
    {
      "children": [3, 6, 8, 11],
      "name": "RootNode"
    },
    {
      "children": [4, 5],
      "name": "Seat"
    },
    {
      "mesh": 0,
      "name": "Seat_woodish_0"
    },
    {
      "mesh": 1,
      "name": "Seat_Plast_0"
    },
    {
      "children": [7],
      "name": "Cushion"
    },
    {
      "mesh": 2,
      "name": "Cushion_Cushion_0"
    },
    {
      "children": [9, 10],
      "name": "Metalic"
    },
    {
      "mesh": 3,
      "name": "Metalic_dark_0"
    },
    {
      "mesh": 4,
      "name": "Metalic_Chrome_0"
    },
    {
      "children": [12],
      "name": "Chain"
    },
    {
      "mesh": 5,
      "name": "Chain_Chrome_0"
    }
  ],
  "samplers": [
    {
      "magFilter": 9729,
      "minFilter": 9987,
      "wrapS": 10497,
      "wrapT": 10497
    }
  ],
  "scene": 0,
  "scenes": [
    {
      "name": "Sketchfab_Scene",
      "nodes": [0]
    }
  ],
  "textures": [
    {
      "sampler": 0,
      "source": 0
    },
    {
      "sampler": 0,
      "source": 1
    },
    {
      "sampler": 0,
      "source": 2
    }
  ]
}
