<svg width="18" height="16" viewBox="0 0 18 16" fill="none" xmlns="http://www.w3.org/2000/svg">
<path id="Icon" d="M2.25006 1.25L4.94193 3.94187M15.7501 14.75L13.0585 12.0584M10.4062 13.1185C9.95084 13.2048 9.4809 13.25 9.00041 13.25C5.64217 13.25 2.79944 11.0428 1.84375 7.99997C2.10392 7.17162 2.50394 6.40521 3.01614 5.72839M7.40907 6.40901C7.81624 6.00184 8.37874 5.75 9.00006 5.75C10.2427 5.75 11.2501 6.75736 11.2501 8C11.2501 8.62132 10.9982 9.18382 10.5911 9.59099M7.40907 6.40901L10.5911 9.59099M7.40907 6.40901L4.94193 3.94187M10.5911 9.59099L4.94193 3.94187M10.5911 9.59099L13.0585 12.0584M4.94193 3.94187C6.1118 3.18766 7.50498 2.75 9.00039 2.75C12.3586 2.75 15.2014 4.95719 16.157 8.00003C15.6269 9.68804 14.516 11.1189 13.0585 12.0584" stroke="#374151" strokeWidth="2" strokeLinecap="round" strokeLinejoin="round"/>
</svg>
