<svg width="20" height="20" viewBox="0 0 20 20" fill="none" xmlns="http://www.w3.org/2000/svg">
<path fillRule="evenodd" clipRule="evenodd" d="M13.2858 13.9885L17.971 18.6723C18.4351 19.136 19.1884 19.136 19.6521 18.6718C20.1163 18.2077 20.1158 17.4543 19.6521 16.9907L14.9698 12.3098C15.9117 11.0287 16.4682 9.44671 16.4682 7.73545C16.4682 3.46627 13.0024 0 8.73276 0C4.46359 0 0.997314 3.46627 0.997314 7.73545C0.997314 12.0051 4.46359 15.4709 8.73276 15.4709C10.4343 15.4709 12.008 14.9207 13.2858 13.9885ZM8.73276 2.3776C11.6902 2.3776 14.0911 4.77852 14.0911 7.73545C14.0911 10.6929 11.6902 13.0938 8.73276 13.0938C5.77583 13.0938 3.37491 10.6929 3.37491 7.73545C3.37491 4.77852 5.77583 2.3776 8.73276 2.3776Z" fill="#8a8a8a"/>
</svg>
